<svg width="131" height="51" fill="none" xmlns="http://www.w3.org/2000/svg"><path d="M20 50c0 .6-.4 1-1 1h-8a1 1 0 0 1-1-1V11c0-.6-.4-1-1-1H1a1 1 0 0 1-1-1V1c0-.6.4-1 1-1h18c.6 0 1 .4 1 1v49ZM56 41c.6 0 1 .4 1 1v8c0 .6-.4 1-1 1H28a1 1 0 0 1-1-1V16c0-.6.4-1 1-1h18c.6 0 1-.4 1-1v-3c0-.6-.4-1-1-1H28a1 1 0 0 1-1-1V1c0-.6.4-1 1-1h28c.6 0 1 .4 1 1v23c0 .6-.4 1-1 1H38a1 1 0 0 0-1 1v14c0 .6.4 1 1 1h18ZM63.5 1c0-.6.4-1 1-1h28c.6 0 1 .4 1 1v49c0 .6-.4 1-1 1h-28a1 1 0 0 1-1-1v-8c0-.6.4-1 1-1h18c.6 0 1-.4 1-1V26c0-.6-.4-1-1-1h-18a1 1 0 0 1-1-1v-8c0-.6.4-1 1-1h18c.6 0 1-.4 1-1v-3c0-.6-.4-1-1-1h-18a1 1 0 0 1-1-1V1ZM122 0a1 1 0 0 0-1 1v13c0 .6-.4 1-1 1h-8a1 1 0 0 1-1-1V1c0-.6-.4-1-1-1h-8a1 1 0 0 0-1 1v23c0 .6.4 1 1 1h18c.6 0 1 .4 1 1v24c0 .6.4 1 1 1h8c.6 0 1-.4 1-1V1c0-.6-.4-1-1-1h-8ZM62.9 32.5a1 1 0 0 0-.4-.3l-4-2c-.7-.4-1.5 0-1.5.7v4.2c0 .7.8 1.1 1.5.8l4-2.1a1 1 0 0 0 .5-.6.9.9 0 0 0-.1-.7Z" fill="#EE4266"/></svg>