<svg width="24" height="24" fill="none" xmlns="http://www.w3.org/2000/svg"><g clip-path="url(#a)"><path d="M7.02 2.31c.75.25 1.47.6 2.13 1.05a11.43 11.43 0 0 1 5.7 0c.66-.44 1.37-.8 2.12-1.05.7-.24 1.7-.62 2.28.03.4.45.5 1.19.57 1.76.08.63.1 1.46-.1 2.28A5.88 5.88 0 0 1 21 10c0 2.04-1.1 3.81-2.74 5.04a9.45 9.45 0 0 1-2.6 1.36A4 4 0 0 1 16 18v3a1 1 0 0 1-1 1H9a1 1 0 0 1-1-1v-1c-.96.13-1.76.02-2.44-.27-.7-.3-1.2-.77-1.58-1.22-.35-.42-.74-1.38-1.3-1.56a1 1 0 1 1 .64-1.9c.66.22 1.1.7 1.4 1.09.47.62.86 1.43 1.62 1.75.32.13.77.22 1.5.12l.16-.03c0-.54.12-1.08.33-1.58a9.45 9.45 0 0 1-2.59-1.36A6.35 6.35 0 0 1 3 10c0-1.35.48-2.58 1.28-3.62a6.23 6.23 0 0 1-.1-2.28v-.04c.07-.58.15-1.27.56-1.72.6-.65 1.59-.27 2.28-.03Z" fill="#D9D9D9"/></g><defs><clipPath id="a"><path fill="#fff" d="M0 0h24v24H0z"/></clipPath></defs></svg>